<?xml version="1.0" encoding="UTF-8" standalone="no"?>
<svg xmlns="http://www.w3.org/2000/svg" width="500" height="500" fill-rule="evenodd" clip-rule="evenodd" viewBox="0 0 500 500">
<g stroke="none" fill="#fff500">
 <circle cx="250" cy="250" r="250" stroke="none" fill="#fff500" />
 <path d="M 175,393 C 125,333 125,333 125,250 C 125,175 150,135 177.5,110 C 200,102 220,102 250,102 C 280,102 300,102 322.5,110 C 350,135 375,175 375,250 C 375,333 375,333 325,393 Z M 170,177.5 H 330 L 345,275 H 155 Z" fill="black" />
 <circle cx="250" cy="137.5" r="17.5" />
 <circle cx="187.5" cy="317.5" r="17.5" />
 <circle cx="312.5" cy="317.5" r="17.5" />
</g>
<path d="M 190,52.5 H 310 M 250,52.5 V 84 M 130,444.5 H 370 M 185,444.5 V 414 M 315,444.5 V 414" stroke="black" stroke-width="21" />
</svg>