<?xml version="1.0" encoding="UTF-8"?><svg id="Ebene_1" xmlns="http://www.w3.org/2000/svg" viewBox="0 0 41.12 50"><defs><style>.cls-1{fill:#528dba;}</style></defs><path class="cls-1" d="M35.02,39.61c-.74,.26-2.79,.75-5.28,.75-7.29,0-10.74-3.46-14.76-4.21l1.9-8.51h9.29l1.23-5.39h-9.18l1.45-6.28h9.74l1.19-5.5H13.31l-5.83,25.58c-.97,.11-2.79,.89-3.31,1.34C1.47,33.82,0,29.47,0,25,0,13.66,9.22,4.44,20.56,4.44s20.56,9.22,20.56,20.56c0,5.49-2.19,10.76-6.1,14.61Z"/><path class="cls-1" d="M20.56,45.56c-5.7,0-11.14-2.38-15.02-6.54,1.19-.75,3.01-1.31,5.47-1.31,6.92,0,9.26,4.64,18.48,4.64,.85,0,1.71-.09,2.54-.29-3.39,2.28-7.38,3.5-11.46,3.49"/></svg>