<?xml version="1.0" encoding="UTF-8"?><svg id="Ebene_1" xmlns="http://www.w3.org/2000/svg" viewBox="0 0 41.13 50"><defs><style>.cls-1{fill:#45935d;}</style></defs><path class="cls-1" d="M20.57,4.44C9.21,4.44,0,13.64,0,25,0,36.35,9.2,45.56,20.56,45.56c11.36,0,20.56-9.2,20.57-20.56h0c-.02-11.35-9.21-20.54-20.56-20.57Zm.52,36.81c-4.53,0-9.78-2.06-12.64-4.61v-6.47c2.71,3.89,7.65,6.92,12.64,6.92,3.05,0,5.5-1.75,5.5-3.61,0-7-18.4-2.67-18.4-14.79,0-6.36,6.21-9.78,11.79-9.78,4.39-.03,8.66,1.41,12.13,4.09v5.39c-2.88-3.09-7.18-5.8-12.23-5.8-2.88,0-4.5,1.52-4.5,3.3,0,7.51,18.7,2.23,18.7,14.57-.01,5-4.85,10.79-12.99,10.79h0Z"/></svg>